# xmcd
#
# Track frame offsets: 
#        150
#        27370
#        58190
#        83984
#        104132
#        125902
#        144993
#        163989
#        182200
#
# Disc length: 2704 seconds
#
# Revision: 1
# Processed by: cddbd v1.5.1PL0 Copyright (c) Steve Scherf et al.
# Submitted via: ExactAudioCopy v0.95a5
#
DISCID=8a0a8e09
DTITLE=Serenity Music - Serenity Music:  Ocean Dreams - Disc 2
DYEAR=2002
DGENRE=Instrumental
TTITLE0=Paradise Sea
TTITLE1=Sunset Serenade
TTITLE2=Tequila Breeze
TTITLE3=Twilight
TTITLE4=Dolphins Of Pasquilina
TTITLE5=Feather River
TTITLE6=Dance Of The Dunes
TTITLE7=Seven Shields
TTITLE8=Embers In The Sand
EXTD=YEAR: 2002
EXTT0=
EXTT1=
EXTT2=
EXTT3=
EXTT4=
EXTT5=
EXTT6=
EXTT7=
EXTT8=
PLAYORDER=
